HIERARCHY
ROOT pelvis
{
  OFFSET 0 100 0
  CHANNELS 6 Xposition Yposition Zposition Zrotation Xrotation Yrotation
  JOINT pelvis_right_femur
  {
    OFFSET -10.78128 -3.44521 -0.5502486
    CHANNELS 3 Zrotation Xrotation Yrotation
    JOINT right_femur_tibia
    {
      OFFSET -0.8047443 -44.0398 -0.1307829
      CHANNELS 3 Zrotation Xrotation Yrotation
      JOINT right_tibia_foot
      {
        OFFSET 3.006224 -47.83518 -5
        CHANNELS 3 Zrotation Xrotation Yrotation
        End Site
        {
          OFFSET 0 -5 15
        }
      }
    }
  }
  JOINT pelvis_left_femur
  {
    OFFSET 10.78128 -3.44521 -0.5502486
    CHANNELS 3 Zrotation Xrotation Yrotation
    JOINT left_femur_tibia
    {
      OFFSET 0.8047443 -44.0398 -0.1307829
      CHANNELS 3 Zrotation Xrotation Yrotation
      JOINT left_tibia_foot
      {
        OFFSET -4.370144 -48.10324 -4.275266
        CHANNELS 3 Zrotation Xrotation Yrotation
        End Site
        {
          OFFSET 0 -5 15
        }
      }
    }
  }
  JOINT pelvis_spine1
  {
    OFFSET 0 6.468898 -3.129235
    CHANNELS 3 Zrotation Xrotation Yrotation
    JOINT spine1
    {
      OFFSET 0 23.15396 4.99043
      CHANNELS 3 Zrotation Xrotation Yrotation
      JOINT spine2
      {
        OFFSET 0 20.79997 -5.064912
        CHANNELS 3 Zrotation Xrotation Yrotation
        JOINT neck
        {
          OFFSET 0 14.38658 9.616178
          CHANNELS 3 Zrotation Xrotation Yrotation
          End Site
          {
            OFFSET 0 20 0
          }
        }
      }
      JOINT right_manubrium
      {
        OFFSET -5.722621 16.35077 3.967754
        CHANNELS 3 Zrotation Xrotation Yrotation
        JOINT right_clavicle
        {
          OFFSET -13.16364 1.694482 -4.693211
          CHANNELS 3 Zrotation Xrotation Yrotation
          JOINT right_humerus
          {
            OFFSET -28.5034 -0.3100689 -2.792744
            CHANNELS 3 Zrotation Xrotation Yrotation
            JOINT right_radius
            {
              OFFSET -25.15693 0.02248979 -1.271978
              CHANNELS 3 Zrotation Xrotation Yrotation
              End Site
              {
                OFFSET -15 0 0
              }
            }
          }
        }
      }
      JOINT left_manubrium
      {
        OFFSET 5.722621 16.35077 3.967754
        CHANNELS 3 Zrotation Xrotation Yrotation
        JOINT left_clavicle
        {
          OFFSET 13.16364 1.694482 -4.693211
          CHANNELS 3 Zrotation Xrotation Yrotation
          JOINT left_humerus
          {
            OFFSET 29.39168 -1.063119 -2.237045
            CHANNELS 3 Zrotation Xrotation Yrotation
            JOINT left_radius
            {
              OFFSET 24.59957 -0.9528479 0.9047498
              CHANNELS 3 Zrotation Xrotation Yrotation
              End Site
              {
                OFFSET 15 -0 -0
              }
            }
          }
        }
      }
    }
  }
}
MOTION
Frames: 11
Frame Time: 0.0416666666667
0 103.5113 0 2.461522 -1.99828 0.2537375 1.034056 -11.29612 7.612527 -0 37.22392 -0 -4.943784 -18.67385 -3.263028 -8.005489 11.60108 -24.07369 -0 4.26813 -0 7.950588 -15.54537 25.77438 -1.951216 -3.250532 5.515305 2.390295 9.461765 -7.731736 1.527864 21.68732 6.036633 2.49547 -25.96492 9.483777 5.71557 -19.50273 10.59191 85.73046 33.80237 -19.66317 -0 0 16.44973 -6.476091 8.041098 3.055549 6.76756 -21.35584 -0.2135399 -96.04182 27.00179 24.52812 0 0 -13.59626 9.647959 18.03683 3.696026
0.2538732 103.4971 1.359469 1.871541 -1.067312 0.3006064 2.083977 -13.63654 8.757986 -0 37.51219 -0 -4.449926 -17.9836 -3.647277 -7.648494 11.36975 -23.95502 -0 4.541718 -0 7.286649 -16.51208 26.11409 -2.018455 -3.326073 5.609929 2.27232 9.42385 -7.617393 1.562602 21.8806 5.863714 2.377192 -25.74995 9.407348 5.705479 -19.56254 10.48422 85.46571 33.75662 -19.24052 -0 0 16.74478 -6.605806 7.99982 3.067536 6.704806 -21.26673 -0.1250249 -96.30902 27.17927 24.82879 0 0 -12.83185 9.529433 18.44825 3.767033
0.4966909 103.3928 2.944706 1.152014 -0.5750483 0.3295516 3.196937 -17.1234 8.212338 -0 35.66179 -0 -5.240362 -15.82061 -3.448131 -7.120871 11.58736 -23.12228 -0 4.898075 -0 6.324017 -18.18328 25.55183 -1.720248 -3.030403 5.393335 2.5429 9.498709 -7.940951 1.443903 21.32454 6.367523 2.782844 -26.35006 9.537741 5.660539 -19.36585 10.74695 86.32505 33.88195 -20.57447 -0 0 15.80733 -6.248448 8.07811 3.041289 6.90469 -21.65637 -0.4592288 -95.63062 27.18747 24.10101 0 0 -15.53468 9.479633 17.2292 4.208045
0.7358097 103.2258 4.735246 0.5059973 0.2089598 0.3343632 4.354036 -20.58956 8.341744 -0 33.83577 -0 -5.471858 -14.07076 -3.401418 -6.714188 11.64992 -22.42973 -0 5.168494 -0 5.917201 -19.52027 25.30161 -1.594331 -2.879336 5.273366 2.677406 9.542512 -8.096133 1.378322 21.04993 6.614075 2.980558 -26.60668 9.583776 5.629069 -19.25414 10.88556 86.74698 33.99181 -21.18281 -0 0 15.30175 -6.182705 8.152011 3.113107 6.991032 -21.84416 -0.6205341 -95.18712 27.07095 23.63333 0 0 -16.85921 9.502096 16.55776 4.338453
0.9780759 102.9232 6.821557 -0.03157246 1.010842 0.3615386 5.386666 -24.23001 8.11428 -0 31.00097 -0 -5.820364 -12.09455 -3.115593 -6.418304 11.82942 -21.55147 -0 5.417612 -0 6.021263 -20.68274 24.90077 -1.385175 -2.688543 5.129783 2.821958 9.572922 -8.305953 1.307683 20.7056 6.924414 3.243985 -26.96025 9.651823 5.566086 -19.11365 11.02593 87.37476 34.06629 -22.1003 -0 0 14.6732 -6.004079 8.186283 3.10789 7.136331 -22.14708 -0.8463395 -94.73215 27.19272 23.14048 0 0 -18.69877 9.388144 15.79567 4.770227
1.226124 102.464 9.269413 -0.5009433 1.883461 0.4474101 6.326676 -27.87179 7.78766 -0 27.60629 -0 -6.157121 -10.03669 -2.71781 -6.192724 12.0963 -20.60486 -0 5.792543 -0 6.216673 -21.72268 24.30589 -1.219747 -2.516184 4.994162 2.942956 9.610111 -8.48588 1.238143 20.40769 7.189616 3.472328 -27.21787 9.682846 5.503319 -18.97435 11.15547 87.92951 34.175 -22.86383 -0 0 14.08086 -5.972881 8.259185 3.187963 7.2523 -22.41591 -1.044023 -94.23321 27.19924 22.60774 0 0 -20.29933 9.306769 15.06873 5.100673
1.480092 101.8372 12.16866 -0.8917169 2.744341 0.6373802 7.07177 -31.30536 7.185642 -0 23.70507 -0 -6.578207 -7.83727 -2.160145 -6.027109 12.51832 -19.54046 -0 6.499177 -0 6.280515 -22.56408 23.31101 -1.048992 -2.343683 4.860793 3.042307 9.649348 -8.664244 1.168402 20.12179 7.441215 3.700209 -27.43304 9.687875 5.43134 -18.8267 11.27368 88.51385 34.28668 -23.64333 -0 0 13.47918 -6.010697 8.347861 3.292044 7.371908 -22.7106 -1.248245 -93.72019 27.24668 22.05987 0 0 -21.91407 9.163807 14.35424 5.521028
1.73866 101.0767 15.61275 -1.231582 3.546647 0.9745595 7.603757 -34.22688 6.374986 -0 19.68963 -0 -7.055693 -5.573314 -1.51265 -5.879954 13.10633 -18.37598 -0 7.83985 -0 5.855779 -23.08492 21.75493 -0.9042 -2.179278 4.734479 3.118458 9.702166 -8.826484 1.095926 19.87014 7.657442 3.905916 -27.55971 9.64764 5.360438 -18.67233 11.38453 89.06534 34.42055 -24.33714 -0 0 12.88687 -6.191597 8.485963 3.46761 7.470726 -22.99759 -1.442865 -93.16603 27.23123 21.47108 0 0 -23.38594 9.000839 13.65743 5.927699
1.999105 100.273 19.69432 -1.552951 4.202418 1.485979 7.937122 -36.18794 5.465976 -0 16.09938 -0 -7.542473 -3.378314 -0.8812699 -5.694287 13.83723 -17.11224 -0 10.23187 -0 4.60538 -23.02469 19.50121 -0.7822569 -2.025511 4.624663 3.162236 9.771068 -8.969213 1.022284 19.66197 7.829404 4.085995 -27.58568 9.553832 5.294508 -18.51601 11.48276 89.57481 34.56378 -24.94088 -0 0 12.32514 -6.52065 8.677199 3.704243 7.547341 -23.27787 -1.628911 -92.60422 27.1904 20.87805 0 0 -24.68411 8.782122 13.00809 6.368123
2.25831 99.58941 24.48002 -1.910569 4.620556 2.156803 8.209028 -36.6661 4.751697 -0 13.65956 -0 -7.928641 -1.505141 -0.4527033 -5.385183 14.56778 -15.76932 -0 14.16461 -0 2.323565 -21.99832 16.59923 -0.6954729 -1.888225 4.546254 3.164331 9.861846 -9.078655 0.9483572 19.51705 7.938578 4.226763 -27.48191 9.392595 5.241367 -18.36755 11.56514 89.99083 34.71244 -25.38732 -0 0 11.83258 -7.030639 8.935736 4.013734 7.586489 -23.52991 -1.798138 -92.06321 27.11368 20.31805 0 0 -25.6961 8.496667 12.43775 6.833624
2.514618 99.24521 29.96954 -2.358239 4.714449 2.893867 8.618835 -35.22 4.583834 -0 13.00332 -0 -8.104307 -0.3153621 -0.4271289 -4.865133 14.94546 -14.37136 -0 20.06163 -0 -0.7953302 -19.60099 13.44291 -0.6496182 -1.772897 4.521968 3.109683 9.975619 -9.135628 0.877406 19.45549 7.967336 4.317634 -27.22659 9.154595 5.206928 -18.24543 11.62488 90.25291 34.85764 -25.60364 -0 0 11.46866 -7.739521 9.264418 4.397424 7.574936 -23.72972 -1.942062 -91.60046 27.02746 19.86753 0 0 -26.31198 8.115295 11.99108 7.349717
